<svg width="1440" height="520" viewBox="0 0 1440 520" fill="none" xmlns="http://www.w3.org/2000/svg">
  <defs>
    <linearGradient id="bannerBg" x1="80" y1="36" x2="1334" y2="474" gradientUnits="userSpaceOnUse">
      <stop offset="0%" stop-color="#FFF6EB"/>
      <stop offset="48%" stop-color="#FFE0B5"/>
      <stop offset="100%" stop-color="#FDBA74"/>
    </linearGradient>
    <linearGradient id="mark" x1="168" y1="96" x2="468" y2="396" gradientUnits="userSpaceOnUse">
      <stop offset="0%" stop-color="#FB923C"/>
      <stop offset="100%" stop-color="#D97706"/>
    </linearGradient>
  </defs>

  <rect width="1440" height="520" rx="36" fill="#141414"/>
  <rect x="18" y="18" width="1404" height="484" rx="26" fill="url(#bannerBg)"/>

  <circle cx="1242" cy="120" r="132" fill="#FFFFFF" fill-opacity="0.22"/>
  <circle cx="1346" cy="430" r="166" fill="#7C2D12" fill-opacity="0.08"/>

  <rect x="78" y="80" width="430" height="360" rx="40" fill="#FFFDF8"/>
  <rect x="112" y="114" width="362" height="292" rx="34" fill="url(#mark)"/>
  <path d="M162 206C182 180 202 180 222 206C242 232 262 232 282 206C302 180 322 180 342 206" stroke="white" stroke-width="22" stroke-linecap="round" stroke-linejoin="round"/>
  <path d="M380 206H404H424" stroke="white" stroke-width="22" stroke-linecap="round"/>
  <path d="M162 270H424" stroke="white" stroke-width="22" stroke-linecap="round"/>
  <path d="M162 336H346" stroke="white" stroke-width="22" stroke-linecap="round"/>

  <text x="564" y="180" fill="#121212" font-family="Avenir Next, Inter, Helvetica, Arial, sans-serif" font-size="76" font-weight="700" letter-spacing="-2">
    scribe-my-bitch-up
  </text>
  <text x="564" y="248" fill="#3F3F46" font-family="Avenir Next, Inter, Helvetica, Arial, sans-serif" font-size="34" font-weight="500">
    Desktop transcription for multi-speaker audio
  </text>
  <text x="564" y="294" fill="#3F3F46" font-family="Avenir Next, Inter, Helvetica, Arial, sans-serif" font-size="34" font-weight="500">
    built around whisper.cpp and local-first workflow
  </text>

  <rect x="564" y="346" width="194" height="54" rx="27" fill="#111111"/>
  <text x="598" y="381" fill="#FFF8EF" font-family="Avenir Next, Inter, Helvetica, Arial, sans-serif" font-size="24" font-weight="700">
    no cloud
  </text>

  <rect x="776" y="346" width="194" height="54" rx="27" fill="#111111"/>
  <text x="808" y="381" fill="#FFF8EF" font-family="Avenir Next, Inter, Helvetica, Arial, sans-serif" font-size="24" font-weight="700">
    no API keys
  </text>

  <rect x="988" y="346" width="252" height="54" rx="27" fill="#FFF7ED" stroke="#F59E0B" stroke-width="2"/>
  <text x="1022" y="381" fill="#B45309" font-family="Avenir Next, Inter, Helvetica, Arial, sans-serif" font-size="24" font-weight="700">
    manual speaker labels
  </text>
</svg>
