<svg width="960" height="320" viewBox="0 0 960 320" fill="none" xmlns="http://www.w3.org/2000/svg">
  <defs>
    <linearGradient id="gt-bg" x1="40" y1="36" x2="320" y2="284" gradientUnits="userSpaceOnUse">
      <stop stop-color="#FF7A18"/>
      <stop offset="0.48" stop-color="#FF4D6D"/>
      <stop offset="1" stop-color="#A63DFF"/>
    </linearGradient>
    <linearGradient id="gt-wave" x1="112" y1="96" x2="246" y2="220" gradientUnits="userSpaceOnUse">
      <stop stop-color="#FFF4CC"/>
      <stop offset="1" stop-color="#FFFFFF"/>
    </linearGradient>
    <filter id="gt-shadow" x="20" y="20" width="340" height="280" filterUnits="userSpaceOnUse" color-interpolation-filters="sRGB">
      <feFlood flood-opacity="0" result="BackgroundImageFix"/>
      <feColorMatrix in="SourceAlpha" type="matrix" values="0 0 0 0 0 0 0 0 0 0 0 0 0 0 0 0 0 0 127 0" result="hardAlpha"/>
      <feOffset dy="12"/>
      <feGaussianBlur stdDeviation="10"/>
      <feColorMatrix type="matrix" values="0 0 0 0 0.305882 0 0 0 0 0.0862745 0 0 0 0 0.47451 0 0 0 0.22 0"/>
      <feBlend mode="normal" in2="BackgroundImageFix" result="effect1_dropShadow_1_1"/>
      <feBlend mode="normal" in="SourceGraphic" in2="effect1_dropShadow_1_1" result="shape"/>
    </filter>
  </defs>

  <rect width="960" height="320" rx="56" fill="#FFF7ED"/>
  <g filter="url(#gt-shadow)">
    <rect x="40" y="36" width="280" height="248" rx="64" fill="url(#gt-bg)"/>
    <path d="M114 96C114 83.8497 123.85 74 136 74H193.252C199.496 74 205.432 76.6585 209.595 81.3117L244.343 120.156C247.974 124.214 249.983 129.469 249.983 134.915V194C249.983 206.15 240.133 216 227.983 216H174.997L136.387 246.104C127.34 253.157 114 246.71 114 235.238V96Z" fill="#10131B" fill-opacity="0.9"/>
    <path d="M157 126C157 119.373 162.373 114 169 114H210C216.627 114 222 119.373 222 126C222 132.627 216.627 138 210 138H169C162.373 138 157 132.627 157 126Z" fill="url(#gt-wave)"/>
    <path d="M157 164C157 157.373 162.373 152 169 152H197C203.627 152 209 157.373 209 164C209 170.627 203.627 176 197 176H169C162.373 176 157 170.627 157 164Z" fill="#FFD166"/>
    <path d="M157 202C157 195.373 162.373 190 169 190H223C229.627 190 235 195.373 235 202C235 208.627 229.627 214 223 214H169C162.373 214 157 208.627 157 202Z" fill="#FFFFFF"/>
    <path d="M87 172C87 146.042 108.042 125 134 125H145V219H134C108.042 219 87 197.958 87 172Z" fill="#FFF4CC" fill-opacity="0.92"/>
    <path d="M108 172L128.25 157.278V186.722L108 172Z" fill="#FF4D6D"/>
    <circle cx="249" cy="99" r="14" fill="#FFF4CC" fill-opacity="0.95"/>
  </g>

  <path d="M388 107.5C388 79.0573 411.057 56 439.5 56H900C915.464 56 928 68.536 928 84V236C928 251.464 915.464 264 900 264H439.5C411.057 264 388 240.943 388 212.5V107.5Z" fill="white"/>
  <path d="M388 107.5C388 79.0573 411.057 56 439.5 56H900C915.464 56 928 68.536 928 84V236C928 251.464 915.464 264 900 264H439.5C411.057 264 388 240.943 388 212.5V107.5Z" stroke="#F3E8FF" stroke-width="8"/>

  <text x="440" y="142" fill="#171717" font-size="58" font-weight="800" font-family="Avenir Next, Inter, Arial, sans-serif" letter-spacing="-1.6">
    Gimme
  </text>
  <text x="440" y="206" fill="#171717" font-size="58" font-weight="800" font-family="Avenir Next, Inter, Arial, sans-serif" letter-spacing="-1.6">
    Transcript
  </text>
  <rect x="767" y="94" width="121" height="30" rx="15" fill="#FFF1F2"/>
  <rect x="767" y="146" width="95" height="22" rx="11" fill="#FFE3B3"/>
  <rect x="767" y="186" width="143" height="22" rx="11" fill="#F3E8FF"/>
  <circle cx="736" cy="108" r="15" fill="#FF4D6D"/>
  <circle cx="722" cy="157" r="15" fill="#FFB84D"/>
  <circle cx="744" cy="197" r="15" fill="#A63DFF"/>
</svg>
